<svg width="24" height="24" viewBox="0 0 24 24" fill="none" xmlns="http://www.w3.org/2000/svg">
<path d="M10.376 7.78809C10.5106 7.76049 10.6505 7.76626 10.7822 7.80566C10.9138 7.84512 11.0336 7.91766 11.1309 8.01465L13.9854 10.8682C14.0823 10.9654 14.1539 11.0862 14.1934 11.2178C14.2328 11.3495 14.2395 11.4893 14.2119 11.624C14.1842 11.7587 14.1233 11.8847 14.0352 11.9902C13.969 12.0694 13.8887 12.1359 13.7988 12.1855L13.7061 12.2295L12.3701 12.7637L11.4326 14.9531C11.3791 15.078 11.2951 15.1881 11.1895 15.2734C11.0836 15.3588 10.9578 15.4176 10.8242 15.4434C10.691 15.469 10.5536 15.4605 10.4238 15.4209C10.2938 15.3811 10.1753 15.3099 10.0791 15.2139L8.72656 13.8613L6.93945 15.6484C6.77692 15.811 6.51313 15.8109 6.35059 15.6484C6.18864 15.4859 6.18842 15.2229 6.35059 15.0605L8.13672 13.2725L6.78516 11.9209C6.68916 11.8247 6.6179 11.7061 6.57812 11.5762C6.53851 11.4464 6.53199 11.309 6.55762 11.1758C6.58343 11.0423 6.64125 10.9164 6.72656 10.8105C6.81182 10.7049 6.92113 10.6209 7.0459 10.5674L9.23535 9.62891L9.76953 8.29492C9.8207 8.16717 9.90419 8.05312 10.0098 7.96484C10.1153 7.87673 10.2413 7.81577 10.376 7.78809Z" fill="#6B7280"/>
<path fill-rule="evenodd" clip-rule="evenodd" d="M14 2L14.1543 2.00391C14.9806 2.04577 15.719 2.422 16.2363 3H18L18.1543 3.00391C19.7394 3.08421 21 4.39489 21 6V18L20.9961 18.1543C20.9184 19.6883 19.6883 20.9184 18.1543 20.9961L18 21H16.2363C15.719 21.578 14.9806 21.9542 14.1543 21.9961L14 22H6C4.39489 22 3.08421 20.7394 3.00391 19.1543L3 19V5C3 3.34315 4.34315 2 6 2H14ZM6 3.5C5.17157 3.5 4.5 4.17157 4.5 5V19C4.5 19.8284 5.17157 20.5 6 20.5H14C14.8284 20.5 15.5 19.8284 15.5 19V5C15.5 4.17157 14.8284 3.5 14 3.5H6ZM16.958 4.5C16.9853 4.66263 17 4.82961 17 5V19C17 19.1704 16.9853 19.3374 16.958 19.5H18C18.8284 19.5 19.5 18.8284 19.5 18V6C19.5 5.17157 18.8284 4.5 18 4.5H16.958Z" fill="#6B7280"/>
</svg>
