<svg width="24" height="24" viewBox="0 0 24 24" fill="none" xmlns="http://www.w3.org/2000/svg">
<path d="M14 2C14.8874 2 15.6822 2.3876 16.2314 3H16.2324C16.7084 3.53097 17 4.23076 17 5V19C17 19.7692 16.7084 20.469 16.2324 21H16.2314C15.6822 21.6124 14.8874 22 14 22H6C5.89846 22 5.79817 21.9942 5.69922 21.9844C5.53142 21.9677 5.36846 21.9348 5.20996 21.8916C4.14994 21.6027 3.32505 20.7495 3.07812 19.6729C3.03958 19.5048 3.0129 19.3318 3.00391 19.1543L3 19V5C3 3.34315 4.34315 2 6 2H14ZM18 3C19.6569 3 21 4.34315 21 6V18C21 19.6569 19.6569 21 18 21H17.4639C17.8044 20.4116 18 19.7288 18 19V5C18 4.27125 17.8044 3.58845 17.4639 3H18ZM10.9697 6.93164C10.8113 6.8842 10.6434 6.87688 10.4814 6.91016C10.3195 6.94344 10.1679 7.01603 10.041 7.12207C9.91423 7.22808 9.81538 7.36418 9.75391 7.51758V7.51855L9.1123 9.12207L6.48242 10.249C6.33227 10.3133 6.2002 10.4139 6.09766 10.541C5.99519 10.6681 5.92458 10.8182 5.89355 10.9785C5.86259 11.1389 5.87217 11.3048 5.91992 11.4609C5.9677 11.6171 6.05265 11.7594 6.16797 11.875L7.79297 13.5L5.64648 15.6465C5.45132 15.8417 5.45132 16.1583 5.64648 16.3535C5.84173 16.5487 6.15827 16.5487 6.35352 16.3535L8.5 14.207L10.125 15.832C10.2405 15.9473 10.383 16.0323 10.5391 16.0801C10.6951 16.1278 10.8603 16.1364 11.0205 16.1055C11.1809 16.0745 11.3318 16.0049 11.459 15.9023C11.5861 15.7998 11.6867 15.6677 11.751 15.5176L12.8779 12.8877V12.8867L14.4814 12.2451C14.6348 12.1837 14.7709 12.0857 14.877 11.959C14.983 11.8321 15.0565 11.6805 15.0898 11.5186C15.1231 11.3566 15.1158 11.1886 15.0684 11.0303C15.0327 10.9114 14.9752 10.8005 14.8994 10.7031L14.8174 10.6104L11.3896 7.18262V7.18164C11.2726 7.06484 11.1281 6.97909 10.9697 6.93164Z" fill="white"/>
</svg>
