<svg width="24" height="24" viewBox="0 0 24 24" fill="none" xmlns="http://www.w3.org/2000/svg">
<path fill-rule="evenodd" clip-rule="evenodd" d="M14 2C14.8874 2 15.6822 2.3876 16.2314 3C16.7075 3.53097 17 4.23076 17 5V19C17 19.7692 16.7084 20.469 16.2324 21C15.6832 21.6124 14.8874 22 14 22H6C5.89846 22 5.79817 21.9942 5.69922 21.9844C5.53142 21.9677 5.36846 21.9348 5.20996 21.8916C4.14994 21.6027 3.32505 20.7495 3.07812 19.6729C3.03958 19.5048 3.0129 19.3318 3.00391 19.1543L3 19V5C3 3.34315 4.34315 2 6 2H14ZM10.8516 7.30957C10.7035 7.26526 10.546 7.25905 10.3945 7.29004C10.243 7.32119 10.1012 7.39011 9.98242 7.48926C9.86365 7.58857 9.77046 7.71663 9.71289 7.86035L9.11133 9.36133L6.64844 10.417C6.50803 10.4772 6.38402 10.5716 6.28809 10.6904C6.19223 10.8094 6.12765 10.9515 6.09863 11.1016C6.06982 11.2515 6.07647 11.4068 6.12109 11.5527C6.16586 11.6988 6.24658 11.8323 6.35449 11.9404L7.875 13.4609L5.86523 15.4717C5.68294 15.6544 5.6831 15.951 5.86523 16.1338C6.04802 16.3165 6.34547 16.3164 6.52832 16.1338L8.53809 14.123L10.0596 15.6445C10.1678 15.7526 10.302 15.8331 10.4482 15.8779C10.5943 15.9225 10.7495 15.9313 10.8994 15.9023C11.0494 15.8733 11.1906 15.8077 11.3096 15.7119C11.4285 15.6159 11.5229 15.4911 11.583 15.3506L12.6377 12.8877L14.1396 12.2861L14.2451 12.2373C14.346 12.1816 14.4363 12.1075 14.5107 12.0186C14.61 11.8998 14.6788 11.7571 14.71 11.6055C14.741 11.454 14.7328 11.2966 14.6885 11.1484C14.644 11.0005 14.5642 10.8642 14.4551 10.7549L11.2441 7.54492C11.1347 7.43573 10.9997 7.35399 10.8516 7.30957Z" fill="white"/>
<path d="M18.0322 3.00098C19.6742 3.01654 21 4.21871 21 5.7002V18.2998C21 19.7813 19.6742 20.9825 18.0322 20.998C18.3311 20.396 18.5 19.7178 18.5 19V5C18.5 4.28189 18.3314 3.60326 18.0322 3.00098Z" fill="white"/>
</svg>
