<svg width="24" height="24" viewBox="0 0 24 24" fill="none" xmlns="http://www.w3.org/2000/svg">
<path d="M20.999 18.0312C20.9823 19.6737 19.6464 21 18 21H6C4.35357 21 3.01676 19.6737 3 18.0312C3.60258 18.3308 4.28142 18.5 5 18.5H19C19.7183 18.5 20.3966 18.3305 20.999 18.0312Z" fill="white"/>
<path fill-rule="evenodd" clip-rule="evenodd" d="M19 3C20.6569 3 22 4.34315 22 6V14C22 15.0655 21.4426 15.998 20.6055 16.5303C20.6007 16.5333 20.5956 16.536 20.5908 16.5391C20.3373 16.6982 20.0596 16.8205 19.7627 16.8984C19.7245 16.9086 19.6863 16.9191 19.6475 16.9277C19.4388 16.9737 19.2225 17 19 17H5L4.8457 16.9961C4.67679 16.9875 4.51198 16.9631 4.35156 16.9277C4.31274 16.9191 4.27457 16.9086 4.23633 16.8984C3.93945 16.8204 3.66162 16.6983 3.4082 16.5391C3.40339 16.536 3.39835 16.5333 3.39355 16.5303C2.55685 15.9979 2 15.0652 2 14V6C2 4.34315 3.34315 3 5 3H19ZM10.3408 6.72754C9.73837 6.72759 9.25 7.2159 9.25 7.81836V12.1816C9.25 12.7841 9.73837 13.2724 10.3408 13.2725C10.5464 13.2725 10.7392 13.216 10.9033 13.1172L14.7002 10.9473C15.0401 10.753 15.25 10.3915 15.25 10C15.25 9.60852 15.0401 9.24696 14.7002 9.05273L10.9033 6.88281C10.7392 6.78399 10.5464 6.72754 10.3408 6.72754Z" fill="white"/>
</svg>
