<svg width="24" height="24" viewBox="0 0 24 24" fill="none" xmlns="http://www.w3.org/2000/svg">
<path d="M10.5 7C10.6884 7 10.8652 7.05197 11.0156 7.14258L14.4961 9.13184C14.8077 9.30988 15 9.64114 15 10C15 10.3589 14.8077 10.6901 14.4961 10.8682L11.0156 12.8574C10.8652 12.948 10.6884 13 10.5 13C9.94772 13 9.5 12.5523 9.5 12V8C9.5 7.44772 9.94772 7 10.5 7Z" fill="white"/>
<path fill-rule="evenodd" clip-rule="evenodd" d="M19 3C20.6569 3 22 4.34315 22 6V14L21.9961 14.1543C21.9543 14.9795 21.5767 15.7142 21 16.2314V18C21 19.6051 19.7394 20.9158 18.1543 20.9961L18 21H6C4.39489 21 3.08421 19.7394 3.00391 18.1543L3 18V16.2334C2.38703 15.6841 2 14.8879 2 14V6C2 4.34315 3.34315 3 5 3H19ZM4.5 18C4.5 18.8284 5.17157 19.5 6 19.5H18C18.8284 19.5 19.5 18.8284 19.5 18V17H4.5V18ZM5 4.5C4.17157 4.5 3.5 5.17157 3.5 6V14C3.5 14.8284 4.17157 15.5 5 15.5H19C19.8284 15.5 20.5 14.8284 20.5 14V6C20.5 5.17157 19.8284 4.5 19 4.5H5Z" fill="white"/>
</svg>
