<svg width="24" height="24" viewBox="0 0 24 24" fill="none" xmlns="http://www.w3.org/2000/svg">
<path d="M14.71 6.70521C14.6175 6.61251 14.5076 6.53896 14.3866 6.48878C14.2657 6.4386 14.136 6.41277 14.005 6.41277C13.874 6.41277 13.7443 6.4386 13.6234 6.48878C13.5024 6.53896 13.3925 6.61251 13.3 6.70521L8.71 11.2952C8.6173 11.3877 8.54375 11.4976 8.49357 11.6186C8.44339 11.7396 8.41756 11.8692 8.41756 12.0002C8.41756 12.1312 8.44339 12.2609 8.49357 12.3818C8.54375 12.5028 8.6173 12.6127 8.71 12.7052L13.3 17.2952C13.3926 17.3878 13.5025 17.4612 13.6235 17.5113C13.7444 17.5614 13.8741 17.5872 14.005 17.5872C14.1359 17.5872 14.2656 17.5614 14.3865 17.5113C14.5075 17.4612 14.6174 17.3878 14.71 17.2952C14.8026 17.2026 14.876 17.0927 14.9261 16.9718C14.9762 16.8508 15.002 16.7211 15.002 16.5902C15.002 16.4593 14.9762 16.3296 14.9261 16.2087C14.876 16.0877 14.8026 15.9778 14.71 15.8852L10.83 11.9952L14.71 8.11521C15.1 7.72521 15.09 7.08521 14.71 6.70521Z" fill="#6B7280"/>
</svg>
