<svg width="24" height="24" viewBox="0 0 24 24" fill="none" xmlns="http://www.w3.org/2000/svg">
<path fill-rule="evenodd" clip-rule="evenodd" d="M6 22H14L14.1543 21.9961C14.9806 21.9542 15.7188 21.578 16.2361 21H18L18.1543 20.9961C19.6883 20.9184 20.9184 19.6883 20.9961 18.1543L21 18V6C21 4.39489 19.7394 3.08421 18.1543 3.00391L18 3H16.2361C15.7188 2.422 14.9806 2.04577 14.1543 2.00391L14 2H6C4.34315 2 3 3.34315 3 5V19L3.00391 19.1543C3.08421 20.7394 4.39489 22 6 22V21C4.89543 21 4 20.1046 4 19V5C4 3.89543 4.89543 3 6 3H14C14.7403 3 15.3866 3.4022 15.7324 4C15.9026 4.29417 16 4.63571 16 5V19C16 19.3643 15.9026 19.7058 15.7324 20C15.3866 20.5978 14.7403 21 14 21H6V22ZM17 19V5C17 4.64936 16.9398 4.31278 16.8293 4H18C19.1046 4 20 4.89543 20 6V18C20 19.1046 19.1046 20 18 20H16.8293C16.9398 19.6872 17 19.3506 17 19Z" fill="#D9D9D9"/>
<path d="M10.3758 7.78828C10.5105 7.76063 10.6505 7.76619 10.7823 7.80562C10.914 7.84512 11.0339 7.91769 11.1313 8.01482L13.9852 10.8677C14.0823 10.965 14.1538 11.0861 14.1933 11.2178C14.2328 11.3496 14.2394 11.4895 14.2118 11.6242C14.184 11.759 14.1233 11.885 14.0351 11.9906C13.9689 12.0698 13.8887 12.1361 13.7988 12.1857L13.7056 12.2291L12.3702 12.7634L11.4326 14.9529C11.3791 15.0779 11.2955 15.1884 11.1898 15.2738C11.0839 15.3592 10.9581 15.4171 10.8245 15.4429C10.6911 15.4686 10.5535 15.4609 10.4235 15.4212C10.2935 15.3814 10.175 15.3102 10.0788 15.2142L8.72607 13.8614L6.93979 15.6488C6.77724 15.8114 6.51268 15.8114 6.35014 15.6488C6.1882 15.4863 6.18797 15.2226 6.35014 15.0603L8.13643 13.2729L6.78479 11.9212C6.68879 11.825 6.61754 11.7065 6.57776 11.5766C6.53806 11.4467 6.53148 11.3089 6.55716 11.1755C6.58298 11.042 6.64093 10.9161 6.72626 10.8102C6.81153 10.7046 6.92121 10.6209 7.04601 10.5674L9.23551 9.62876L9.76988 8.29447C9.82105 8.16672 9.90385 8.05323 10.0094 7.96496C10.115 7.87673 10.241 7.81599 10.3758 7.78828Z" fill="white"/>
<path fill-rule="evenodd" clip-rule="evenodd" d="M14.1543 2.00391C14.9798 2.04573 15.7152 2.42304 16.2324 3H18L18.1543 3.00391C19.7394 3.08421 21 4.39489 21 6V18L20.9961 18.1543C20.9184 19.6883 19.6883 20.9184 18.1543 20.9961L18 21H16.2324C15.7152 21.577 14.9798 21.9543 14.1543 21.9961L14 22H6C4.39489 22 3.08421 20.7394 3.00391 19.1543L3 19V5C3 3.34315 4.34315 2 6 2H14L14.1543 2.00391ZM6 3.5C5.17157 3.5 4.5 4.17157 4.5 5V19C4.5 19.8284 5.17157 20.5 6 20.5H14C14.8284 20.5 15.5 19.8284 15.5 19V5C15.5 4.17157 14.8284 3.5 14 3.5H6ZM16.9551 4.5C16.9824 4.66278 17 4.82945 17 5V19C17 19.1706 16.9824 19.3372 16.9551 19.5H18C18.8284 19.5 19.5 18.8284 19.5 18V6C19.5 5.17157 18.8284 4.5 18 4.5H16.9551Z" fill="white"/>
</svg>
