<svg width="24" height="24" viewBox="0 0 24 24" fill="none" xmlns="http://www.w3.org/2000/svg">
<path d="M12.9988 2C14.3788 2 15.4975 3.11822 15.4975 4.49762V8.49704C15.4975 8.77306 15.7214 8.99682 15.9975 8.99682H18.5C19.2351 8.9967 19.9447 9.26638 20.494 9.75466C21.0434 10.2429 21.3942 10.9158 21.48 11.6456L21.495 11.8195L21.5 11.9955L21.48 12.1914L20.474 17.2211C20.093 18.8464 18.972 20.0158 17.664 19.9998L17.5 19.9918H9.5C9.25507 19.9918 9.01866 19.9019 8.83563 19.7392C8.65259 19.5766 8.53566 19.3524 8.507 19.1092L8.5 18.9923L8.501 9.46061C8.50118 9.28532 8.54747 9.11317 8.63523 8.96141C8.72299 8.80966 8.84913 8.68364 9.001 8.596C9.42731 8.34969 9.78641 8.00229 10.0466 7.58445C10.3068 7.1666 10.4601 6.69116 10.493 6.20008L10.5 5.99817V4.99863C10.5 4.86557 10.5 4.69311 10.5 4.49815C10.5 3.11875 11.6187 2 12.9988 2ZM5.5 8.99682C5.74493 8.99685 5.98134 9.08673 6.16437 9.24942C6.34741 9.4121 6.46434 9.63628 6.493 9.87942L6.5 9.99637V18.9923C6.49997 19.2371 6.41004 19.4734 6.24728 19.6564C6.08453 19.8393 5.86025 19.9562 5.617 19.9848L5.5 19.9918H4.5C3.99542 19.992 3.50943 19.8015 3.13945 19.4586C2.76947 19.1157 2.54284 18.6456 2.505 18.1427L2.5 17.9927V10.9959C2.49984 10.4916 2.69041 10.0058 3.0335 9.63598C3.37659 9.26617 3.84684 9.03964 4.35 9.00181L4.5 8.99682H5.5Z" fill="white"/>
</svg>
