<svg width="24" height="24" viewBox="0 0 24 24" fill="none" xmlns="http://www.w3.org/2000/svg">
<path fill-rule="evenodd" clip-rule="evenodd" d="M6 22H14L14.1543 21.9961C14.9806 21.9542 15.7188 21.578 16.2361 21H18L18.1543 20.9961C19.6883 20.9184 20.9184 19.6883 20.9961 18.1543L21 18V6C21 4.39489 19.7394 3.08421 18.1543 3.00391L18 3H16.2361C15.7188 2.422 14.9806 2.04577 14.1543 2.00391L14 2H6C4.34315 2 3 3.34315 3 5V19L3.00391 19.1543C3.08421 20.7394 4.39489 22 6 22V21C4.89543 21 4 20.1046 4 19V5C4 3.89543 4.89543 3 6 3H14C14.7403 3 15.3866 3.4022 15.7324 4C15.9026 4.29417 16 4.63571 16 5V19C16 19.3643 15.9026 19.7058 15.7324 20C15.3866 20.5978 14.7403 21 14 21H6V22ZM17 19V5C17 4.64936 16.9398 4.31278 16.8293 4H18C19.1046 4 20 4.89543 20 6V18C20 19.1046 19.1046 20 18 20H16.8293C16.9398 19.6872 17 19.3506 17 19Z" fill="#D9D9D9"/>
<path d="M10.4381 15.1882L8.62495 13.375L6.81178 11.5618C6.75886 11.5088 6.71972 11.4437 6.6978 11.3721C6.67588 11.3005 6.67185 11.2246 6.68605 11.151C6.70025 11.0775 6.73225 11.0086 6.77926 10.9503C6.82627 10.892 6.88685 10.8461 6.9557 10.8166L9.36699 9.78304C9.42236 9.75934 9.47252 9.72496 9.51459 9.68186C9.55667 9.63877 9.58984 9.5878 9.6122 9.53188L10.2002 8.062C10.2284 7.99162 10.2736 7.92933 10.3318 7.8807C10.3899 7.83207 10.4592 7.79863 10.5335 7.78337C10.6078 7.76811 10.6846 7.77151 10.7573 7.79326C10.8299 7.81501 10.896 7.85443 10.9496 7.908L14.092 11.0503C14.1455 11.104 14.1849 11.1701 14.2067 11.2427C14.2284 11.3153 14.2318 11.3922 14.2166 11.4665C14.2013 11.5407 14.1679 11.61 14.1193 11.6682C14.0706 11.7263 14.0083 11.7715 13.938 11.7997L12.4681 12.3878C12.4122 12.4101 12.3612 12.4433 12.3181 12.4854C12.275 12.5274 12.2406 12.5776 12.2169 12.633L11.1834 15.0443C11.1539 15.1131 11.108 15.1737 11.0497 15.2207C10.9914 15.2677 10.9225 15.2997 10.8489 15.3139C10.7754 15.3281 10.6995 15.3241 10.6279 15.3022C10.5563 15.2802 10.4911 15.2411 10.4381 15.1882Z" fill="white"/>
<path d="M6.33325 15.6667L8.62492 13.375M8.62492 13.375L10.4381 15.1882C10.4911 15.2411 10.5562 15.2802 10.6278 15.3022C10.6995 15.3241 10.7754 15.3281 10.8489 15.3139C10.9224 15.2997 10.9914 15.2677 11.0497 15.2207C11.108 15.1737 11.1539 15.1131 11.1833 15.0443L12.2169 12.633C12.2406 12.5776 12.275 12.5274 12.3181 12.4854C12.3612 12.4433 12.4121 12.4101 12.468 12.3878L13.9379 11.7997C14.0083 11.7715 14.0706 11.7263 14.1192 11.6682C14.1678 11.61 14.2013 11.5407 14.2166 11.4665C14.2318 11.3922 14.2284 11.3153 14.2067 11.2427C14.1849 11.1701 14.1455 11.104 14.0919 11.0503L10.9496 7.908C10.8959 7.85443 10.8298 7.81501 10.7572 7.79326C10.6846 7.77151 10.6077 7.76811 10.5335 7.78337C10.4592 7.79863 10.3899 7.83207 10.3317 7.8807C10.2736 7.92933 10.2284 7.99162 10.2002 8.062L9.61217 9.53188C9.5898 9.5878 9.55664 9.63877 9.51456 9.68186C9.47249 9.72496 9.42233 9.75934 9.36696 9.78304L6.95567 10.8166C6.88682 10.8461 6.82624 10.892 6.77923 10.9503C6.73222 11.0086 6.70022 11.0775 6.68602 11.151C6.67182 11.2246 6.67585 11.3005 6.69777 11.3721C6.71969 11.4437 6.75883 11.5088 6.81175 11.5618L8.62492 13.375Z" stroke="white" stroke-width="0.916667" stroke-linecap="round" stroke-linejoin="round"/>
</svg>
