<svg width="24" height="24" viewBox="0 0 24 24" fill="none" xmlns="http://www.w3.org/2000/svg">
<path d="M12.9559 18.956L8.99994 15L5.04394 11.044C4.92846 10.9284 4.84308 10.7862 4.79525 10.63C4.74743 10.4737 4.73862 10.3081 4.76961 10.1477C4.80059 9.98726 4.87042 9.83686 4.97298 9.70965C5.07554 9.58244 5.20772 9.4823 5.35794 9.418L10.6189 7.163C10.7397 7.11129 10.8492 7.03627 10.941 6.94224C11.0328 6.84821 11.1051 6.73701 11.1539 6.615L12.4369 3.408C12.4984 3.25444 12.597 3.11852 12.7239 3.01243C12.8508 2.90633 13.002 2.83337 13.164 2.80007C13.326 2.76678 13.4938 2.77419 13.6522 2.82165C13.8107 2.8691 13.9549 2.95512 14.0719 3.072L20.9279 9.928C21.0448 10.045 21.1308 10.1892 21.1783 10.3477C21.2257 10.5061 21.2332 10.6739 21.1999 10.8359C21.1666 10.9979 21.0936 11.1492 20.9875 11.276C20.8814 11.4029 20.7455 11.5015 20.5919 11.563L17.3849 12.846C17.2629 12.8948 17.1517 12.9672 17.0577 13.059C16.9637 13.1508 16.8886 13.2602 16.8369 13.381L14.5819 18.642C14.5176 18.7922 14.4175 18.9244 14.2903 19.027C14.1631 19.1295 14.0127 19.1993 13.8522 19.2303C13.6918 19.2613 13.5262 19.2525 13.37 19.2047C13.2137 19.1569 13.0716 19.0715 12.9559 18.956Z" fill="white"/>
<path d="M4 20L9 15M9 15L12.956 18.956C13.0716 19.0715 13.2138 19.1569 13.37 19.2047C13.5263 19.2525 13.6919 19.2613 13.8523 19.2303C14.0127 19.1993 14.1631 19.1295 14.2903 19.027C14.4176 18.9244 14.5177 18.7922 14.582 18.642L16.837 13.381C16.8887 13.2602 16.9637 13.1508 17.0578 13.059C17.1518 12.9672 17.263 12.8948 17.385 12.846L20.592 11.563C20.7456 11.5015 20.8815 11.4029 20.9876 11.276C21.0937 11.1492 21.1666 10.9979 21.1999 10.8359C21.2332 10.6739 21.2258 10.5061 21.1784 10.3477C21.1309 10.1892 21.0449 10.045 20.928 9.928L14.072 3.072C13.955 2.95512 13.8108 2.8691 13.6523 2.82165C13.4939 2.77419 13.3261 2.76678 13.1641 2.80007C13.0021 2.83337 12.8508 2.90633 12.724 3.01243C12.5971 3.11852 12.4985 3.25444 12.437 3.408L11.154 6.615C11.1052 6.73701 11.0328 6.84821 10.941 6.94224C10.8492 7.03627 10.7398 7.11129 10.619 7.163L5.358 9.418C5.20778 9.4823 5.07561 9.58244 4.97304 9.70965C4.87048 9.83686 4.80065 9.98726 4.76967 10.1477C4.73868 10.3081 4.74749 10.4737 4.79531 10.63C4.84314 10.7862 4.92852 10.9284 5.044 11.044L9 15Z" stroke="white" stroke-width="2" stroke-linecap="round" stroke-linejoin="round"/>
</svg>
