<svg width="18" height="18" viewBox="0 0 18 18" fill="none" xmlns="http://www.w3.org/2000/svg">
<path d="M9.33012 0.0383464C9.63344 -0.0239148 9.94803 -0.0102583 10.2447 0.078587C10.5412 0.167491 10.8112 0.32899 11.0303 0.547755L17.4513 6.96887C17.6702 7.18802 17.8325 7.45872 17.9214 7.75539C18.0102 8.05199 18.0239 8.36666 17.9617 8.66994C17.8993 8.97315 17.7623 9.25643 17.5638 9.49396C17.3652 9.73149 17.1104 9.91658 16.823 10.0317L13.8197 11.2334L11.707 16.1611C11.5867 16.4419 11.3988 16.689 11.1611 16.8808C10.9229 17.0729 10.641 17.2041 10.3407 17.2622C10.0403 17.3202 9.7297 17.3202 9.43712 17.2137C9.2179 17.1466 9.01328 17.0402 8.83351 16.9L8.66158 16.7482L5.61886 13.7055L1.59849 17.7259C1.23283 18.0914 0.639912 18.0913 0.274213 17.7259C-0.0914458 17.3602 -0.0913629 16.7674 0.274213 16.4016L4.29459 12.3812L1.25187 9.33848C1.03562 9.12197 0.875027 8.85464 0.785448 8.56203C0.696065 8.26962 0.679948 7.95959 0.737891 7.65936C0.795926 7.35908 0.926437 7.07712 1.11835 6.839C1.26231 6.66051 1.43795 6.51009 1.63507 6.39544L1.83993 6.29209L6.76571 4.18038L7.96835 1.17697L8.01499 1.07088C8.13064 0.827004 8.29746 0.609945 8.50519 0.436179C8.7428 0.23759 9.02678 0.100684 9.33012 0.0383464Z" fill="currentColor"/>
</svg>
