<svg width="24" height="24" viewBox="0 0 24 24" fill="none" xmlns="http://www.w3.org/2000/svg">
<path d="M17.2948 15.0002C17.3875 14.9077 17.461 14.7978 17.5112 14.6768C17.5614 14.5559 17.5872 14.4262 17.5872 14.2952C17.5872 14.1642 17.5614 14.0346 17.5112 13.9136C17.461 13.7926 17.3875 13.6827 17.2948 13.5902L12.7048 9.00021C12.6123 8.9075 12.5024 8.83396 12.3814 8.78378C12.2604 8.73359 12.1307 8.70776 11.9998 8.70776C11.8688 8.70776 11.7391 8.73359 11.6181 8.78378C11.4972 8.83396 11.3873 8.9075 11.2948 9.00021L6.70477 13.5902C6.61219 13.6828 6.53875 13.7927 6.48864 13.9137C6.43854 14.0346 6.41275 14.1643 6.41275 14.2952C6.41275 14.4261 6.43854 14.5558 6.48864 14.6768C6.53875 14.7977 6.61219 14.9076 6.70477 15.0002C6.79735 15.0928 6.90726 15.1662 7.02823 15.2163C7.14919 15.2664 7.27884 15.2922 7.40977 15.2922C7.5407 15.2922 7.67035 15.2664 7.79131 15.2163C7.91228 15.1662 8.02219 15.0928 8.11477 15.0002L12.0048 11.1202L15.8848 15.0002C16.2748 15.3902 16.9148 15.3802 17.2948 15.0002Z" fill="#6B7280"/>
</svg>
