<svg width="32" height="32" viewBox="0 0 32 32" fill="none" xmlns="http://www.w3.org/2000/svg">
<circle cx="16" cy="16" r="15.25" fill="#E5E7EB" stroke="#9CA3AF" stroke-width="1.5"/>
<path d="M29.3333 22C29.3333 19.7909 27.5425 18 25.3333 18H6.66667C4.45753 18 2.66667 19.7909 2.66667 22V24.8411C5.22002 28.6842 9.38782 31.3617 14.2034 31.9002C14.2798 31.9088 14.3563 31.9168 14.433 31.9242C14.511 31.9318 14.5892 31.9388 14.6675 31.9453L17.6359 31.9174C17.9411 31.8864 18.2438 31.8467 18.5437 31.7988C23.042 31.0796 26.913 28.484 29.3333 24.8411V22Z" fill="#9CA3AF"/>
<path d="M16 4C19.3137 4 22 6.68629 22 10C22 13.3137 19.3137 16 16 16C12.6863 16 10 13.3137 10 10C10 6.68629 12.6863 4 16 4Z" fill="#9CA3AF"/>
</svg>
