<svg width="24" height="24" viewBox="0 0 24 24" fill="none" xmlns="http://www.w3.org/2000/svg">
<path d="M12.9774 1.82203C13.3144 1.75285 13.664 1.76803 13.9936 1.86675C14.3231 1.96553 14.623 2.14497 14.8664 2.38804L22.001 9.52261C22.2441 9.76612 22.4245 10.0669 22.5233 10.3965C22.6219 10.7261 22.6372 11.0757 22.568 11.4127C22.4987 11.7496 22.3465 12.0644 22.126 12.3283C21.9053 12.5922 21.6222 12.7979 21.3029 12.9258L17.9658 14.261L15.6184 19.7362C15.4847 20.0482 15.276 20.3228 15.0118 20.5359C14.7471 20.7493 14.434 20.8951 14.1003 20.9597C13.7665 21.0241 13.4214 21.0053 13.0963 20.9058C12.8527 20.8312 12.6253 20.713 12.4256 20.5573L12.2346 20.3886L8.85377 17.0078L4.38668 21.4749C3.9804 21.881 3.3216 21.8809 2.91527 21.4749C2.50898 21.0686 2.50907 20.4098 2.91527 20.0034L7.38235 15.5363L4.00155 12.1555C3.76127 11.9149 3.58284 11.6179 3.48331 11.2928C3.38399 10.9679 3.36609 10.6234 3.43047 10.2898C3.49495 9.95618 3.63996 9.6429 3.85319 9.37831C4.01316 9.17999 4.20831 9.01286 4.42733 8.88547L4.65495 8.77064L10.128 6.42429L11.4643 3.08717L11.5161 2.9693C11.6446 2.69832 11.83 2.45714 12.0608 2.26407C12.3248 2.04342 12.6403 1.8913 12.9774 1.82203Z" fill="black"/>
</svg>
