<svg width="24" height="24" viewBox="0 0 24 24" fill="none" xmlns="http://www.w3.org/2000/svg">
<path d="M22 12C22 10.0222 21.4135 8.08879 20.3147 6.4443C19.2159 4.79981 17.6541 3.51809 15.8268 2.76121C13.9996 2.00433 11.9889 1.8063 10.0491 2.19215C8.10929 2.578 6.32746 3.53041 4.92894 4.92894C3.53041 6.32746 2.578 8.10929 2.19215 10.0491C1.8063 11.9889 2.00433 13.9996 2.76121 15.8268C3.51809 17.6541 4.79981 19.2159 6.4443 20.3147C8.08879 21.4135 10.0222 22 12 22C14.6522 22 17.1957 20.9464 19.0711 19.0711C20.9464 17.1957 22 14.6522 22 12ZM15.925 14.7333C16.0802 14.8895 16.1673 15.1007 16.1673 15.3208C16.1673 15.541 16.0802 15.7522 15.925 15.9083C15.8475 15.9864 15.7554 16.0484 15.6538 16.0907C15.5523 16.1331 15.4433 16.1548 15.3333 16.1548C15.2233 16.1548 15.1144 16.1331 15.0129 16.0907C14.9113 16.0484 14.8191 15.9864 14.7417 15.9083L12.15 13.3167C12.1101 13.2804 12.0581 13.2602 12.0042 13.2602C11.9502 13.2602 11.8982 13.2804 11.8583 13.3167L9.26667 15.9083C9.10725 16.0449 8.90219 16.1162 8.69246 16.1081C8.48273 16.1 8.28378 16.013 8.13537 15.8646C7.98695 15.7162 7.90001 15.5173 7.89191 15.3075C7.88381 15.0978 7.95515 14.8928 8.09167 14.7333L10.6833 12.1417C10.7196 12.1018 10.7398 12.0498 10.7398 11.9958C10.7398 11.9419 10.7196 11.8899 10.6833 11.85L8.09167 9.25834C8.01356 9.18087 7.95157 9.0887 7.90926 8.98715C7.86695 8.8856 7.84517 8.77668 7.84517 8.66667C7.84517 8.55666 7.86695 8.44774 7.90926 8.34619C7.95157 8.24464 8.01356 8.15247 8.09167 8.075C8.2478 7.91979 8.45902 7.83268 8.67917 7.83268C8.89932 7.83268 9.11053 7.91979 9.26667 8.075L11.8583 10.6667C11.877 10.6866 11.8996 10.7025 11.9247 10.7133C11.9498 10.7242 11.9768 10.7298 12.0042 10.7298C12.0315 10.7298 12.0585 10.7242 12.0836 10.7133C12.1087 10.7025 12.1313 10.6866 12.15 10.6667L14.7417 8.075C14.8194 7.9973 14.9116 7.93567 15.0131 7.89362C15.1146 7.85157 15.2235 7.82993 15.3333 7.82993C15.4432 7.82993 15.552 7.85157 15.6535 7.89362C15.7551 7.93567 15.8473 7.9973 15.925 8.075C16.0027 8.1527 16.0643 8.24494 16.1064 8.34646C16.1484 8.44798 16.1701 8.55679 16.1701 8.66667C16.1701 8.77655 16.1484 8.88536 16.1064 8.98688C16.0643 9.0884 16.0027 9.18064 15.925 9.25834L13.3333 11.85C13.3134 11.8687 13.2975 11.8913 13.2867 11.9164C13.2758 11.9415 13.2702 11.9685 13.2702 11.9958C13.2702 12.0232 13.2758 12.0502 13.2867 12.0753C13.2975 12.1004 13.3134 12.123 13.3333 12.1417L15.925 14.7333Z" fill="black"/>
</svg>
