<svg width="24" height="24" viewBox="0 0 24 24" fill="none" xmlns="http://www.w3.org/2000/svg">
<path fill-rule="evenodd" clip-rule="evenodd" d="M11.3081 1.24603C11.7401 0.894474 12.3763 0.920097 12.7787 1.3223L15.0657 3.60823H19.2917C19.8989 3.60847 20.3915 4.10107 20.3917 4.70823V8.9342L22.6776 11.2201C23.107 11.6495 23.1077 12.3459 22.6787 12.7756L20.3917 15.0648V19.2918C20.3915 19.8989 19.8989 20.3916 19.2917 20.3918H15.0657L12.7798 22.6777C12.3505 23.107 11.654 23.1078 11.2243 22.6788L8.93411 20.3918H4.70814C4.10103 20.3915 3.6084 19.8989 3.60814 19.2918V15.0648L1.32114 12.7756C0.892501 12.346 0.893214 11.6505 1.32221 11.2212L3.60814 8.9342V4.70823C3.60839 4.1011 4.10102 3.60851 4.70814 3.60823H8.93411L11.2243 1.32122L11.3081 1.24603ZM13.6499 7.05002C13.0424 7.05006 12.5499 7.54253 12.5499 8.15002C12.5499 10.1054 11.9562 10.9363 11.321 11.3598C10.5846 11.8507 9.50542 12 8.14994 12C7.54245 12.0001 7.04994 12.4925 7.04994 13.1C7.04996 14.7858 8.35984 16.2026 9.87942 16.8598C11.4764 17.5502 13.5427 17.5377 15.3966 16.1895C17.3827 14.7451 17.6752 12.4306 17.226 10.6336C16.9998 9.72867 16.5733 8.87517 15.9982 8.22737C15.4334 7.59138 14.6247 7.05002 13.6499 7.05002Z" fill="black"/>
</svg>
