<svg width="24" height="24" viewBox="0 0 24 24" fill="none" xmlns="http://www.w3.org/2000/svg">
<path d="M13.0518 2.05273C14.5042 2.05297 15.6816 3.23357 15.6816 4.68945V8.91113C15.6818 9.20233 15.9174 9.43848 16.208 9.43848H18.8418C19.6156 9.43835 20.3632 9.72287 20.9414 10.2383C21.5196 10.7537 21.8882 11.4641 21.9785 12.2344L21.9951 12.418L22 12.6035L21.9785 12.8105L20.9199 18.1191C20.5189 19.8347 19.3388 21.0696 17.9619 21.0527L17.7891 21.0439H9.36816C9.11043 21.0438 8.86155 20.949 8.66895 20.7773C8.47638 20.6056 8.3534 20.3689 8.32324 20.1123L8.31543 19.9893L8.31641 9.92773C8.31662 9.7429 8.36579 9.56142 8.45801 9.40137C8.5503 9.24133 8.68311 9.10812 8.84277 9.01562C9.29151 8.75564 9.66946 8.38831 9.94336 7.94727C10.2172 7.50623 10.3794 7.00466 10.4141 6.48633L10.4209 6.27344V4.68945C10.4211 3.23355 11.5992 2.05273 13.0518 2.05273Z" fill="#6B7280"/>
<path d="M5.69141 9.43848C5.94918 9.43851 6.19797 9.53341 6.39062 9.70508C6.58329 9.8768 6.70714 10.1135 6.7373 10.3701L6.74414 10.4932V19.9893C6.74407 20.2476 6.64981 20.4973 6.47852 20.6904C6.30719 20.8835 6.07049 21.0069 5.81445 21.0371L5.69141 21.0439H4.10547C3.57434 21.0441 3.06231 20.8434 2.67285 20.4814C2.28355 20.1196 2.04482 19.6234 2.00488 19.0928L2 18.9336V11.5488C1.99983 11.0165 2.20048 10.5036 2.56152 10.1133C2.92265 9.72294 3.41766 9.48331 3.94727 9.44336L4.10547 9.43848H5.69141Z" fill="#6B7280"/>
</svg>
