<svg width="32" height="32" viewBox="0 0 32 32" fill="none" xmlns="http://www.w3.org/2000/svg">
  <path d="M32 16C32 24.8366 24.8366 32 16 32C7.16344 32 0 24.8366 0 16C0 7.16344 7.16344 0 16 0C24.8366 0 32 7.16344 32 16Z" fill="#F3F4F6"/>
  <path d="M16 4C19.3137 4 22 6.68629 22 10C22 13.3137 19.3137 16 16 16C12.6863 16 10 13.3137 10 10C10 6.68629 12.6863 4 16 4Z" fill="#D1D5DB"/>
  <path fill-rule="evenodd" clip-rule="evenodd" d="M16 0C24.8366 0 32 7.16344 32 16C32 22.6401 27.9545 28.3338 22.1943 30.7549C22.1664 30.7666 22.1384 30.7784 22.1104 30.79C21.8857 30.883 21.6584 30.9709 21.4287 31.0537C21.3917 31.0671 21.3545 31.0797 21.3174 31.0928C21.2281 31.1242 21.1388 31.1556 21.0488 31.1855C21.0027 31.2009 20.9564 31.2155 20.9102 31.2305C20.8287 31.2567 20.7471 31.2826 20.665 31.3076C20.6164 31.3224 20.5674 31.3362 20.5186 31.3506C20.43 31.3766 20.3412 31.4022 20.252 31.4268C20.2159 31.4367 20.1797 31.4464 20.1436 31.4561C20.0565 31.4793 19.9694 31.5026 19.8818 31.5244C19.8156 31.5409 19.7492 31.5566 19.6826 31.5723C19.6322 31.5841 19.5818 31.596 19.5312 31.6074C19.4507 31.6256 19.37 31.6432 19.2891 31.6602C19.2157 31.6755 19.1421 31.6898 19.0684 31.7041C19.017 31.7141 18.9656 31.7239 18.9141 31.7334C18.8342 31.7481 18.7541 31.7619 18.6738 31.7754C18.6305 31.7827 18.5874 31.7919 18.5439 31.7988C18.5252 31.8018 18.5061 31.8037 18.4873 31.8066C18.4029 31.8198 18.3182 31.8319 18.2334 31.8438C18.1768 31.8517 18.1202 31.8599 18.0635 31.8672C17.3879 31.9542 16.6993 32 16 32C15.5554 32 15.1151 31.9799 14.6797 31.9443L14.667 31.9453C14.5888 31.9389 14.5104 31.9314 14.4326 31.9238C14.4134 31.922 14.3942 31.9199 14.375 31.918C14.3672 31.9172 14.3594 31.9158 14.3516 31.915C14.3021 31.91 14.2524 31.9059 14.2031 31.9004C14.1535 31.8948 14.1042 31.8869 14.0547 31.8809C13.9963 31.8738 13.938 31.8671 13.8799 31.8594C13.8019 31.849 13.7241 31.8376 13.6465 31.8262C13.5731 31.8153 13.4999 31.8038 13.4268 31.792C13.3662 31.7822 13.3055 31.7732 13.2451 31.7627C13.1596 31.7478 13.0743 31.732 12.9893 31.7158C12.9341 31.7053 12.8791 31.6947 12.8242 31.6836C12.721 31.6628 12.6181 31.6409 12.5156 31.6182C12.4814 31.6106 12.4472 31.6026 12.4131 31.5947C12.1352 31.5311 11.86 31.4607 11.5879 31.3828C11.5539 31.3731 11.5202 31.3625 11.4863 31.3525C11.3837 31.3224 11.2814 31.2919 11.1797 31.2598C11.1454 31.2489 11.1113 31.2376 11.0771 31.2266C10.9659 31.1906 10.8553 31.1535 10.7451 31.1152C10.7311 31.1104 10.7171 31.1055 10.7031 31.1006C10.4499 31.0118 10.1994 30.9174 9.95215 30.8164C9.92366 30.8048 9.8956 30.7921 9.86719 30.7803C4.0744 28.3739 0 22.6636 0 16C0 7.16344 7.16344 0 16 0ZM16 1.5C7.99187 1.5 1.5 7.99187 1.5 16C1.5 18.0347 1.92015 19.9712 2.67676 21.7285C2.81637 19.646 4.54912 18 6.66699 18H25.333C27.4509 18 29.1826 19.646 29.3223 21.7285C30.079 19.9711 30.5 18.0349 30.5 16C30.5 7.99187 24.0081 1.5 16 1.5Z" fill="#D1D5DB"/>
</svg>
