<svg width="24" height="24" viewBox="0 0 24 24" fill="none" xmlns="http://www.w3.org/2000/svg">
<path d="M8.99978 17.2996C9.0923 17.3923 9.20219 17.4658 9.32316 17.516C9.44413 17.5662 9.57382 17.592 9.70478 17.592C9.83575 17.592 9.96543 17.5662 10.0864 17.516C10.2074 17.4658 10.3173 17.3923 10.4098 17.2996L14.9998 12.7096C15.0925 12.6171 15.166 12.5072 15.2162 12.3862C15.2664 12.2652 15.2922 12.1356 15.2922 12.0046C15.2922 11.8736 15.2664 11.7439 15.2162 11.623C15.166 11.502 15.0925 11.3921 14.9998 11.2996L10.4098 6.70959C10.3172 6.617 10.2073 6.54356 10.0863 6.49346C9.96536 6.44335 9.83572 6.41756 9.70478 6.41756C9.57385 6.41756 9.44421 6.44335 9.32324 6.49346C9.20228 6.54356 9.09237 6.617 8.99978 6.70959C8.9072 6.80217 8.83376 6.91208 8.78366 7.03304C8.73355 7.15401 8.70776 7.28365 8.70776 7.41459C8.70776 7.54552 8.73355 7.67516 8.78366 7.79613C8.83376 7.91709 8.9072 8.027 8.99978 8.11958L12.8798 12.0096L8.99978 15.8896C8.60978 16.2796 8.61978 16.9196 8.99978 17.2996Z" fill="black"/>
</svg>
