<svg width="24" height="24" viewBox="0 0 24 24" fill="none" xmlns="http://www.w3.org/2000/svg">
<path d="M6.70522 8.99978C6.61252 9.0923 6.53897 9.20219 6.48879 9.32316C6.43861 9.44413 6.41278 9.57382 6.41278 9.70478C6.41278 9.83575 6.43861 9.96544 6.48879 10.0864C6.53897 10.2074 6.61252 10.3173 6.70523 10.4098L11.2952 14.9998C11.3877 15.0925 11.4976 15.166 11.6186 15.2162C11.7396 15.2664 11.8693 15.2922 12.0002 15.2922C12.1312 15.2922 12.2609 15.2664 12.3818 15.2162C12.5028 15.166 12.6127 15.0925 12.7052 14.9998L17.2952 10.4098C17.3878 10.3172 17.4612 10.2073 17.5114 10.0863C17.5615 9.96536 17.5872 9.83571 17.5872 9.70478C17.5872 9.57385 17.5615 9.44421 17.5114 9.32324C17.4612 9.20228 17.3878 9.09237 17.2952 8.99978C17.2026 8.9072 17.0927 8.83376 16.9718 8.78366C16.8508 8.73355 16.7212 8.70776 16.5902 8.70776C16.4593 8.70776 16.3296 8.73355 16.2087 8.78366C16.0877 8.83376 15.9778 8.9072 15.8852 8.99978L11.9952 12.8798L8.11522 8.99978C7.72522 8.60978 7.08522 8.61978 6.70522 8.99978Z" fill="black"/>
</svg>
