<svg width="224" height="36" viewBox="0 0 224 36" fill="none" xmlns="http://www.w3.org/2000/svg">
<g clip-path="url(#clip0_8074_8538)">
<path d="M161.923 32.541V4.35742H167.627V32.541H161.923ZM175.088 32.541L168.623 23.2832L172.236 18.9473L181.67 32.541H175.088ZM166.923 26.3691V19.9824H167.744L174.814 11.6035H181.279L171.611 22.5996H170.341L166.923 26.3691Z" fill="#8B5CF6"/>
<path d="M150.702 32.9707C148.579 32.9707 146.743 32.528 145.194 31.6426C143.644 30.7572 142.453 29.5007 141.62 27.873C140.786 26.2324 140.37 24.2923 140.37 22.0527V22.0332C140.37 19.7936 140.786 17.8665 141.62 16.252C142.466 14.6243 143.657 13.3743 145.194 12.502C146.743 11.6165 148.56 11.1738 150.643 11.1738C152.544 11.1738 154.191 11.5319 155.584 12.248C156.978 12.9512 158.065 13.9082 158.846 15.1191C159.64 16.3301 160.077 17.6908 160.155 19.2012V19.3379H154.862L154.823 19.1621C154.653 18.1595 154.224 17.3262 153.534 16.6621C152.843 15.985 151.906 15.6465 150.721 15.6465C149.797 15.6465 148.989 15.9069 148.299 16.4277C147.622 16.9355 147.095 17.6712 146.717 18.6348C146.353 19.5853 146.17 20.7246 146.17 22.0527V22.0723C146.17 23.4395 146.353 24.6048 146.717 25.5684C147.095 26.5189 147.622 27.248 148.299 27.7559C148.989 28.2507 149.803 28.498 150.741 28.498C151.886 28.498 152.804 28.179 153.495 27.541C154.198 26.89 154.647 26.0371 154.842 24.9824L154.862 24.8066H160.174V24.9238C160.083 26.4473 159.64 27.8145 158.846 29.0254C158.052 30.2363 156.958 31.1999 155.565 31.916C154.185 32.6191 152.564 32.9707 150.702 32.9707Z" fill="#8B5CF6"/>
<path d="M132.8 32.541V11.6035H138.503V32.541H132.8ZM135.652 8.9082C134.792 8.9082 134.07 8.61523 133.484 8.0293C132.898 7.44336 132.605 6.74674 132.605 5.93945C132.605 5.11914 132.898 4.42253 133.484 3.84961C134.07 3.26367 134.792 2.9707 135.652 2.9707C136.511 2.9707 137.234 3.26367 137.82 3.84961C138.405 4.42253 138.698 5.11914 138.698 5.93945C138.698 6.74674 138.405 7.44336 137.82 8.0293C137.234 8.61523 136.511 8.9082 135.652 8.9082Z" fill="#8B5CF6"/>
<path d="M112.613 23.6543V19.0449H119.527C121.22 19.0449 122.535 18.6152 123.473 17.7559C124.423 16.8835 124.898 15.6465 124.898 14.0449V14.0059C124.898 12.4043 124.423 11.1738 123.473 10.3145C122.535 9.45508 121.22 9.02539 119.527 9.02539H112.613V4.35742H120.973C122.952 4.35742 124.684 4.76107 126.168 5.56836C127.652 6.36263 128.805 7.48242 129.625 8.92773C130.458 10.373 130.875 12.0592 130.875 13.9863V14.0254C130.875 15.9655 130.458 17.6582 129.625 19.1035C128.805 20.5488 127.652 21.6686 126.168 22.4629C124.684 23.2572 122.952 23.6543 120.973 23.6543H112.613ZM109.645 32.541V4.35742H115.543V32.541H109.645Z" fill="#8B5CF6"/>
<path d="M97.6609 32.9707C95.5255 32.9707 93.6896 32.5345 92.1531 31.6621C90.6167 30.7767 89.4318 29.5202 88.5984 27.8926C87.7781 26.265 87.368 24.3379 87.368 22.1113V22.0918C87.368 19.8652 87.7781 17.9382 88.5984 16.3105C89.4318 14.6699 90.5971 13.4069 92.0945 12.5215C93.605 11.623 95.3823 11.1738 97.4266 11.1738C99.4708 11.1738 101.235 11.61 102.72 12.4824C104.217 13.3418 105.369 14.5592 106.177 16.1348C106.997 17.7103 107.407 19.5527 107.407 21.6621V23.4199H90.1609V19.8262H104.712L101.997 23.1855V20.998C101.997 19.7741 101.808 18.752 101.43 17.9316C101.053 17.0983 100.526 16.4733 99.8484 16.0566C99.1844 15.64 98.4096 15.4316 97.5242 15.4316C96.6388 15.4316 95.8511 15.6465 95.1609 16.0762C94.4839 16.5059 93.95 17.1374 93.5594 17.9707C93.1818 18.791 92.993 19.8001 92.993 20.998V23.2051C92.993 24.3639 93.1818 25.3535 93.5594 26.1738C93.95 26.9941 94.5034 27.6257 95.2195 28.0684C95.9357 28.498 96.7886 28.7129 97.7781 28.7129C98.5594 28.7129 99.2365 28.5892 99.8094 28.3418C100.382 28.0944 100.851 27.7819 101.216 27.4043C101.58 27.0267 101.828 26.6426 101.958 26.252L101.997 26.1348H107.231L107.173 26.3496C107.016 27.1178 106.71 27.8926 106.255 28.6738C105.799 29.4551 105.18 30.1712 104.399 30.8223C103.631 31.4733 102.687 31.9941 101.567 32.3848C100.46 32.7754 99.1583 32.9707 97.6609 32.9707Z" fill="#8B5CF6"/>
<path d="M66.2828 32.541V11.6035H71.986V15.041H72.1031C72.65 13.8431 73.4573 12.8991 74.525 12.209C75.5927 11.5189 76.9143 11.1738 78.4899 11.1738C80.7946 11.1738 82.5719 11.8704 83.8219 13.2637C85.0849 14.6439 85.7164 16.5645 85.7164 19.0254V32.541H80.0133V20.1973C80.0133 18.8301 79.6878 17.7754 79.0367 17.0332C78.3987 16.278 77.4417 15.9004 76.1656 15.9004C75.3193 15.9004 74.5836 16.0957 73.9586 16.4863C73.3336 16.8639 72.8453 17.3978 72.4938 18.0879C72.1552 18.778 71.986 19.5853 71.986 20.5098V32.541H66.2828Z" fill="#8B5CF6"/>
<path d="M54.7875 32.9707C52.6521 32.9707 50.8161 32.5345 49.2797 31.6621C47.7432 30.7767 46.5583 29.5202 45.725 27.8926C44.9047 26.265 44.4945 24.3379 44.4945 22.1113V22.0918C44.4945 19.8652 44.9047 17.9382 45.725 16.3105C46.5583 14.6699 47.7237 13.4069 49.2211 12.5215C50.7315 11.623 52.5088 11.1738 54.5531 11.1738C56.5974 11.1738 58.3617 11.61 59.8461 12.4824C61.3435 13.3418 62.4958 14.5592 63.3031 16.1348C64.1234 17.7103 64.5336 19.5527 64.5336 21.6621V23.4199H47.2875V19.8262H61.8383L59.1234 23.1855V20.998C59.1234 19.7741 58.9346 18.752 58.557 17.9316C58.1794 17.0983 57.6521 16.4733 56.975 16.0566C56.3109 15.64 55.5362 15.4316 54.6508 15.4316C53.7653 15.4316 52.9776 15.6465 52.2875 16.0762C51.6104 16.5059 51.0765 17.1374 50.6859 17.9707C50.3083 18.791 50.1195 19.8001 50.1195 20.998V23.2051C50.1195 24.3639 50.3083 25.3535 50.6859 26.1738C51.0765 26.9941 51.6299 27.6257 52.3461 28.0684C53.0622 28.498 53.9151 28.7129 54.9047 28.7129C55.6859 28.7129 56.363 28.5892 56.9359 28.3418C57.5088 28.0944 57.9776 27.7819 58.3422 27.4043C58.7067 27.0267 58.9541 26.6426 59.0844 26.252L59.1234 26.1348H64.3578L64.2992 26.3496C64.1429 27.1178 63.837 27.8926 63.3812 28.6738C62.9255 29.4551 62.307 30.1712 61.5258 30.8223C60.7575 31.4733 59.8135 31.9941 58.6937 32.3848C57.587 32.7754 56.2849 32.9707 54.7875 32.9707Z" fill="#8B5CF6"/>
<path d="M34.2297 32.9707C32.1073 32.9707 30.2714 32.528 28.7219 31.6426C27.1724 30.7572 25.981 29.5007 25.1477 27.873C24.3144 26.2324 23.8977 24.2923 23.8977 22.0527V22.0332C23.8977 19.7936 24.3144 17.8665 25.1477 16.252C25.9941 14.6243 27.1855 13.3743 28.7219 12.502C30.2714 11.6165 32.0878 11.1738 34.1711 11.1738C36.0722 11.1738 37.7193 11.5319 39.1125 12.248C40.5058 12.9512 41.593 13.9082 42.3743 15.1191C43.1685 16.3301 43.6047 17.6908 43.6829 19.2012V19.3379H38.3899L38.3508 19.1621C38.1816 18.1595 37.7519 17.3262 37.0618 16.6621C36.3717 15.985 35.4342 15.6465 34.2493 15.6465C33.3248 15.6465 32.5175 15.9069 31.8274 16.4277C31.1503 16.9355 30.623 17.6712 30.2454 18.6348C29.8808 19.5853 29.6985 20.7246 29.6985 22.0527V22.0723C29.6985 23.4395 29.8808 24.6048 30.2454 25.5684C30.623 26.5189 31.1503 27.248 31.8274 27.7559C32.5175 28.2507 33.3313 28.498 34.2688 28.498C35.4146 28.498 36.3326 28.179 37.0227 27.541C37.7258 26.89 38.175 26.0371 38.3704 24.9824L38.3899 24.8066H43.7024V24.9238C43.6112 26.4473 43.1685 27.8145 42.3743 29.0254C41.58 30.2363 40.4862 31.1999 39.093 31.916C37.7128 32.6191 36.0917 32.9707 34.2297 32.9707Z" fill="#8B5CF6"/>
<path d="M11.3672 33.0293C9.14062 33.0293 7.19401 32.7038 5.52734 32.0527C3.8737 31.3887 2.57161 30.4447 1.62109 29.2207C0.670573 27.9837 0.136719 26.4993 0.0195312 24.7676L0 24.4551H5.56641L5.60547 24.6699C5.73568 25.3991 6.0612 26.0306 6.58203 26.5645C7.11589 27.0853 7.80599 27.4954 8.65234 27.7949C9.4987 28.0814 10.4557 28.2246 11.5234 28.2246C12.6172 28.2246 13.5547 28.0814 14.3359 27.7949C15.1302 27.4954 15.7422 27.0788 16.1719 26.5449C16.6146 25.998 16.8359 25.3665 16.8359 24.6504V24.6309C16.8359 23.6803 16.4583 22.9382 15.7031 22.4043C14.9609 21.8574 13.7109 21.4017 11.9531 21.0371L8.98438 20.4512C6.21094 19.8913 4.12109 18.9473 2.71484 17.6191C1.30859 16.291 0.605469 14.5658 0.605469 12.4434V12.4238C0.605469 10.7051 1.06771 9.20768 1.99219 7.93164C2.91667 6.64258 4.1862 5.64648 5.80078 4.94336C7.41536 4.22721 9.26432 3.86914 11.3477 3.86914C13.5221 3.86914 15.3971 4.20768 16.9727 4.88477C18.5612 5.56185 19.7982 6.51888 20.6836 7.75586C21.569 8.99284 22.0573 10.4316 22.1484 12.0723L22.168 12.4434H16.6016L16.582 12.209C16.4779 11.4668 16.1979 10.8353 15.7422 10.3145C15.2865 9.7806 14.681 9.37044 13.9258 9.08398C13.1836 8.79753 12.3242 8.6543 11.3477 8.6543C10.3451 8.6543 9.47917 8.80404 8.75 9.10352C8.02083 9.38997 7.46094 9.78711 7.07031 10.2949C6.69271 10.8027 6.50391 11.3952 6.50391 12.0723V12.0918C6.50391 12.9772 6.88151 13.6934 7.63672 14.2402C8.39193 14.7871 9.57682 15.2233 11.1914 15.5488L14.1797 16.1543C16.1458 16.5449 17.7604 17.0853 19.0234 17.7754C20.2865 18.4655 21.2174 19.3379 21.8164 20.3926C22.4284 21.4342 22.7344 22.6908 22.7344 24.1621V24.1816C22.7344 25.9915 22.2786 27.5605 21.3672 28.8887C20.4688 30.2038 19.1667 31.2259 17.4609 31.9551C15.7682 32.6712 13.737 33.0293 11.3672 33.0293Z" fill="#8B5CF6"/>
</g>
<path d="M206.33 0.0766929C206.936 -0.0478296 207.566 -0.0205167 208.159 0.157174C208.752 0.334983 209.292 0.657979 209.73 1.09551L222.572 13.9377C223.01 14.376 223.335 14.9174 223.512 15.5108C223.69 16.104 223.717 16.7333 223.593 17.3399C223.468 17.9463 223.194 18.5129 222.797 18.9879C222.4 19.463 221.89 19.8332 221.316 20.0634L215.309 22.4669L211.084 32.3222C210.843 32.8838 210.467 33.378 209.992 33.7617C209.515 34.1457 208.952 34.4083 208.351 34.5244C207.75 34.6405 207.129 34.6065 206.544 34.4275C206.105 34.2932 205.696 34.0805 205.337 33.8001L204.993 33.4965L198.907 27.411L190.867 35.4518C190.135 36.1828 188.949 36.1827 188.218 35.4518C187.487 34.7204 187.487 33.5347 188.218 32.8032L196.259 24.7624L190.173 18.677C189.741 18.2439 189.42 17.7093 189.24 17.1241C189.062 16.5392 189.029 15.9192 189.145 15.3187C189.261 14.7182 189.522 14.1542 189.906 13.678C190.194 13.321 190.545 13.0202 190.94 12.7909L191.349 12.5842L201.201 8.36076L203.606 2.35394L203.7 2.14176C203.931 1.65401 204.264 1.21989 204.68 0.872358C205.155 0.47518 205.723 0.201368 206.33 0.0766929Z" fill="#8B5CF6"/>
<defs>
<clipPath id="clip0_8074_8538">
<rect width="181.67" height="30.0586" fill="white" transform="translate(0 2.9707)"/>
</clipPath>
</defs>
</svg>
