<svg width="213" height="30" viewBox="0 0 213 30" fill="none" xmlns="http://www.w3.org/2000/svg">
<path d="M172.865 27.2198L169.965 22.6675L168.606 23.8056V27.8806C168.606 28.5047 168.092 29.0554 167.468 29.0554H161.851C161.264 29.0554 160.713 28.5047 160.713 27.8806V6.62425C160.713 4.45823 162.475 2.69604 164.715 2.69604C166.844 2.69604 168.606 4.45823 168.606 6.62425V15.5453L172.865 11.3601C173.636 10.5892 174.664 10.1119 175.692 10.1119C176.5 10.1119 177.344 10.3689 178.078 10.993C179.4 12.1311 179.547 14.7744 178.041 16.0226L175.178 18.3721L179.437 24.0625C180.648 25.6779 179.767 28.1743 178.115 28.9085C177.527 29.1655 176.94 29.2757 176.389 29.2757C174.921 29.2757 173.636 28.468 172.865 27.2198Z" fill="#8B5CF6"/>
<path d="M141.025 19.7306C141.025 14.0035 145.357 9.92841 151.562 9.92841C154.315 9.92841 159.308 11.0665 159.308 14.6276C159.308 16.4999 157.656 18.1152 155.674 18.1152C154.976 18.1152 154.205 17.9317 153.471 17.4544C152.773 17.0139 152.223 16.7936 151.562 16.7936C149.947 16.7936 148.808 18.0051 148.808 19.7306C148.808 21.456 149.947 22.6675 151.562 22.6675C152.223 22.6675 152.773 22.4473 153.471 22.0067C154.205 21.5295 154.976 21.3459 155.674 21.3459C157.656 21.3459 159.308 22.9612 159.308 24.8336C159.308 28.3946 154.315 29.5327 151.562 29.5327C145.357 29.5327 141.025 25.4577 141.025 19.7306Z" fill="#8B5CF6"/>
<path d="M131.353 27.8807V13.8934C131.353 11.7274 133.115 9.96519 135.355 9.96519C137.484 9.96519 139.246 11.7274 139.246 13.8934V27.8807C139.246 28.5048 138.732 29.0555 138.108 29.0555H132.491C131.904 29.0555 131.353 28.5048 131.353 27.8807ZM131.243 5.00904C131.243 2.80631 133.042 0.970703 135.318 0.970703C137.521 0.970703 139.32 2.80631 139.32 5.00904C139.32 7.21177 137.521 9.04738 135.318 9.04738C133.042 9.04738 131.243 7.21177 131.243 5.00904Z" fill="#8B5CF6"/>
<path d="M106.406 27.6237V8.0928C106.406 5.48624 108.461 3.39365 111.105 3.35693H119.659C126.193 3.35693 129.461 8.09281 129.461 12.792C129.461 17.5645 126.193 22.3004 119.659 22.3004H115.914V27.6237C115.914 28.4314 115.29 29.0555 114.519 29.0555H107.837C107.066 29.0555 106.406 28.4314 106.406 27.6237ZM115.914 10.5892V15.0681H117.823C119.438 15.0681 120.246 13.93 120.246 12.792C120.246 11.7273 119.438 10.5892 117.823 10.5892H115.914Z" fill="#8B5CF6"/>
<path d="M100.965 21.4927H91.9338C92.4845 23.0347 93.7327 23.9525 95.348 23.9525C96.1924 23.9525 97.1102 23.7689 97.9546 23.4385C98.9825 23.0347 99.6801 22.6308 100.745 22.6308C102.213 22.6308 103.425 23.6955 103.425 25.4209C103.425 28.9086 98.0647 29.5327 95.5316 29.5327C89.1804 29.5327 84.7382 25.5678 84.7382 19.7306C84.7382 14.0035 88.6297 9.92841 94.6505 9.92841C100.561 9.92841 104.379 14.0035 104.379 18.6659C104.379 20.7952 102.984 21.4927 100.965 21.4927ZM94.7974 15.5821C93.5491 15.5821 92.5212 16.2796 92.0072 17.638H97.8078C97.4406 16.3897 96.3026 15.5821 94.7974 15.5821Z" fill="#8B5CF6"/>
<path d="M75.477 27.8807V18.8128C75.477 17.5278 74.7061 16.61 73.6414 16.61C72.5768 16.61 71.8425 17.5278 71.8425 18.8128V27.8807C71.8425 28.5048 71.3286 29.0555 70.7044 29.0555H65.0875C64.5001 29.0555 63.9494 28.5048 63.9494 27.8807V13.8933C63.9494 11.7273 65.7116 9.96512 67.951 9.96512C69.7499 9.96512 71.2918 11.2133 71.7324 12.9021C72.9072 11.0665 74.9631 9.92841 77.4962 9.92841C80.9471 9.92841 83.3701 12.6451 83.3701 16.61V27.8807C83.3701 28.5048 82.8562 29.0555 82.2321 29.0555H76.6151C76.0277 29.0555 75.477 28.5048 75.477 27.8807Z" fill="#8B5CF6"/>
<path d="M58.8392 21.4927H49.808C50.3587 23.0347 51.6069 23.9525 53.2222 23.9525C54.0666 23.9525 54.9844 23.7689 55.8288 23.4385C56.8567 23.0347 57.5543 22.6308 58.6189 22.6308C60.0874 22.6308 61.2989 23.6955 61.2989 25.4209C61.2989 28.9086 55.9389 29.5327 53.4058 29.5327C47.0546 29.5327 42.6124 25.5678 42.6124 19.7306C42.6124 14.0035 46.5039 9.92841 52.5247 9.92841C58.4354 9.92841 62.2534 14.0035 62.2534 18.6659C62.2534 20.7952 60.8584 21.4927 58.8392 21.4927ZM52.6716 15.5821C51.4233 15.5821 50.3954 16.2796 49.8814 17.638H55.682C55.3148 16.3897 54.1768 15.5821 52.6716 15.5821Z" fill="#8B5CF6"/>
<path d="M23.1449 19.7306C23.1449 14.0035 27.4769 9.92841 33.6813 9.92841C36.4347 9.92841 41.4276 11.0665 41.4276 14.6276C41.4276 16.4999 39.7755 18.1152 37.7931 18.1152C37.0955 18.1152 36.3246 17.9317 35.5903 17.4544C34.8928 17.0139 34.3421 16.7936 33.6813 16.7936C32.066 16.7936 30.9279 18.0051 30.9279 19.7306C30.9279 21.456 32.066 22.6675 33.6813 22.6675C34.3421 22.6675 34.8928 22.4473 35.5903 22.0067C36.3246 21.5295 37.0955 21.3459 37.7931 21.3459C39.7755 21.3459 41.4276 22.9612 41.4276 24.8336C41.4276 28.3946 36.4347 29.5327 33.6813 29.5327C27.4769 29.5327 23.1449 25.4577 23.1449 19.7306Z" fill="#8B5CF6"/>
<path d="M11.0385 2.76965C13.3881 2.76965 15.5908 3.02664 17.4632 3.61403C21.942 5.11923 22.0889 9.34113 19.7026 10.8463C18.9316 11.3603 18.1607 11.5439 17.4264 11.5439C16.0314 11.5439 14.7832 10.8096 13.9388 10.4058C13.3147 10.1121 12.5804 9.96524 11.7361 9.96524C10.8183 9.96524 10.3777 10.4425 10.3777 10.9198C10.3777 13.4529 21.7952 12.3882 21.7952 21.1625C21.7952 26.1553 17.2429 29.643 10.7448 29.643C8.28512 29.643 5.93554 29.3493 3.98979 28.7986C-0.746079 27.2934 -0.892928 22.9981 1.6035 21.4929C2.41117 20.9789 3.18212 20.7953 3.95308 20.7953C5.45828 20.7953 6.81663 21.603 7.69772 22.0068C8.35854 22.3005 9.1295 22.4474 10.0106 22.4474C10.9651 22.4474 11.4424 21.9701 11.4424 21.4929C11.4424 18.9597 0.0615887 20.0244 0.0615887 11.2502C0.0615887 6.25731 4.57719 2.76965 11.0385 2.76965Z" fill="#8B5CF6"/>
<path d="M199.514 1.05965C199.985 0.962799 200.475 0.984043 200.936 1.12225C201.397 1.26054 201.817 1.51176 202.158 1.85206L212.147 11.8405C212.487 12.1814 212.74 12.6024 212.878 13.0639C213.016 13.5253 213.037 14.0148 212.94 14.4866C212.843 14.9582 212.63 15.3989 212.322 15.7684C212.013 16.1379 211.616 16.4258 211.169 16.6049L206.497 18.4743L203.211 26.1395C203.024 26.5763 202.732 26.9607 202.362 27.2591C201.991 27.5578 201.553 27.762 201.086 27.8523C200.618 27.9426 200.135 27.9162 199.68 27.7769C199.339 27.6725 199.021 27.5071 198.741 27.289L198.474 27.0528L193.74 22.3197L187.487 28.5736C186.918 29.1422 185.995 29.1421 185.427 28.5736C184.858 28.0048 184.858 27.0825 185.427 26.5136L191.68 20.2597L186.947 15.5265C186.611 15.1897 186.361 14.7739 186.222 14.3187C186.083 13.8639 186.058 13.3816 186.148 12.9146C186.238 12.4475 186.441 12.0089 186.74 11.6384C186.964 11.3608 187.237 11.1268 187.543 10.9485L187.862 10.7877L195.524 7.50281L197.395 2.83084L197.468 2.66582C197.648 2.28645 197.907 1.9488 198.23 1.6785C198.6 1.36958 199.042 1.15662 199.514 1.05965Z" fill="#8B5CF6"/>
</svg>
