<svg preserveAspectRatio="none" width="100%" height="100%" overflow="visible" style="display: block;" viewBox="0 0 10 9.50009" fill="none" xmlns="http://www.w3.org/2000/svg">
<g id="Union">
<path d="M5.52588 0C6.2521 0.00011967 6.84082 0.590418 6.84082 1.31836V3.4292C6.84091 3.5748 6.95872 3.69287 7.104 3.69287H8.4209C8.80781 3.69281 9.18158 3.83507 9.4707 4.09277C9.75978 4.35047 9.94412 4.7057 9.98926 5.09082L9.99756 5.18262L10 5.27539L9.98926 5.37891L9.45996 8.0332C9.25943 8.89098 8.66938 9.50844 7.98096 9.5L7.89453 9.49561H3.68408C3.55522 9.49556 3.43077 9.44814 3.33447 9.3623C3.23819 9.27645 3.1767 9.15807 3.16162 9.02979L3.15771 8.96826L3.1582 3.9375C3.15831 3.84509 3.18289 3.75434 3.229 3.67432C3.27515 3.5943 3.34156 3.5277 3.42139 3.48145C3.64575 3.35146 3.83473 3.16779 3.97168 2.94727C4.10862 2.72675 4.18972 2.47596 4.20703 2.2168L4.21045 2.11035V1.31836C4.21053 0.590409 4.7996 -1.1591e-06 5.52588 0Z" fill="var(--fill-0, white)"/>
<path d="M1.8457 3.69287C1.97459 3.69289 2.09899 3.74034 2.19531 3.82617C2.29165 3.91203 2.35357 4.03037 2.36865 4.15869L2.37207 4.22021V8.96826C2.37204 9.09745 2.3249 9.22231 2.23926 9.31885C2.1536 9.41539 2.03525 9.47707 1.90723 9.49219L1.8457 9.49561H1.05273C0.787168 9.49569 0.531153 9.39535 0.336426 9.21436C0.141774 9.03342 0.0224078 8.78535 0.00244146 8.52002L5.27434e-08 8.44043V4.74805C-8.39764e-05 4.4819 0.100239 4.22544 0.280762 4.03027C0.461326 3.8351 0.70883 3.71529 0.973633 3.69531L1.05273 3.69287H1.8457Z" fill="var(--fill-0, white)"/>
</g>
</svg>
